<?xml version="1.0" encoding="utf-8"?>
<!-- Generator: Adobe Illustrator 17.0.0, SVG Export Plug-In . SVG Version: 6.00 Build 0)  -->
<!DOCTYPE svg PUBLIC "-//W3C//DTD SVG 1.1//EN" "http://www.w3.org/Graphics/SVG/1.1/DTD/svg11.dtd" [
	<!ENTITY ns_extend "http://ns.adobe.com/Extensibility/1.0/">
	<!ENTITY ns_ai "http://ns.adobe.com/AdobeIllustrator/10.0/">
	<!ENTITY ns_graphs "http://ns.adobe.com/Graphs/1.0/">
	<!ENTITY ns_vars "http://ns.adobe.com/Variables/1.0/">
	<!ENTITY ns_imrep "http://ns.adobe.com/ImageReplacement/1.0/">
	<!ENTITY ns_sfw "http://ns.adobe.com/SaveForWeb/1.0/">
	<!ENTITY ns_custom "http://ns.adobe.com/GenericCustomNamespace/1.0/">
	<!ENTITY ns_adobe_xpath "http://ns.adobe.com/XPath/1.0/">
]>
<svg version="1.1" xmlns:x="&ns_extend;" xmlns:i="&ns_ai;" xmlns:graph="&ns_graphs;"
	 xmlns="http://www.w3.org/2000/svg" xmlns:xlink="http://www.w3.org/1999/xlink" x="0px" y="0px" width="792px" height="612px"
	 viewBox="0 0 792 612" enable-background="new 0 0 792 612" xml:space="preserve">
<metadata><?xpacket begin="﻿" id="W5M0MpCehiHzreSzNTczkc9d"?>
<x:xmpmeta xmlns:x="adobe:ns:meta/" x:xmptk="Adobe XMP Core 5.5-c014 79.151739, 2013/04/03-12:12:15        ">
   <rdf:RDF xmlns:rdf="http://www.w3.org/1999/02/22-rdf-syntax-ns#">
      <rdf:Description rdf:about=""
            xmlns:pdf="http://ns.adobe.com/pdf/1.3/"
            xmlns:xmp="http://ns.adobe.com/xap/1.0/"
            xmlns:xmpGImg="http://ns.adobe.com/xap/1.0/g/img/"
            xmlns:xmpMM="http://ns.adobe.com/xap/1.0/mm/"
            xmlns:stRef="http://ns.adobe.com/xap/1.0/sType/ResourceRef#"
            xmlns:stEvt="http://ns.adobe.com/xap/1.0/sType/ResourceEvent#"
            xmlns:dc="http://purl.org/dc/elements/1.1/"
            xmlns:xmpTPg="http://ns.adobe.com/xap/1.0/t/pg/"
            xmlns:stDim="http://ns.adobe.com/xap/1.0/sType/Dimensions#"
            xmlns:xmpG="http://ns.adobe.com/xap/1.0/g/">
         <pdf:Producer>Adobe PDF library 5.00</pdf:Producer>
         <xmp:CreateDate>2014-09-26T02:54:15+01:00</xmp:CreateDate>
         <xmp:ModifyDate>2014-09-26T02:54:15+01:00</xmp:ModifyDate>
         <xmp:CreatorTool>Adobe Illustrator CC (Macintosh)</xmp:CreatorTool>
         <xmp:MetadataDate>2014-09-26T02:54:15+01:00</xmp:MetadataDate>
         <xmp:Thumbnails>
            <rdf:Alt>
               <rdf:li rdf:parseType="Resource">
                  <xmpGImg:width>256</xmpGImg:width>
                  <xmpGImg:height>64</xmpGImg:height>
                  <xmpGImg:format>JPEG</xmpGImg:format>
                  <xmpGImg:image>/9j/4AAQSkZJRgABAgEASABIAAD/7QAsUGhvdG9zaG9wIDMuMAA4QklNA+0AAAAAABAASAAAAAEA&#xA;AQBIAAAAAQAB/+4ADkFkb2JlAGTAAAAAAf/bAIQABgQEBAUEBgUFBgkGBQYJCwgGBggLDAoKCwoK&#xA;DBAMDAwMDAwQDA4PEA8ODBMTFBQTExwbGxscHx8fHx8fHx8fHwEHBwcNDA0YEBAYGhURFRofHx8f&#xA;Hx8fHx8fHx8fHx8fHx8fHx8fHx8fHx8fHx8fHx8fHx8fHx8fHx8fHx8fHx8f/8AAEQgAQAEAAwER&#xA;AAIRAQMRAf/EAaIAAAAHAQEBAQEAAAAAAAAAAAQFAwIGAQAHCAkKCwEAAgIDAQEBAQEAAAAAAAAA&#xA;AQACAwQFBgcICQoLEAACAQMDAgQCBgcDBAIGAnMBAgMRBAAFIRIxQVEGE2EicYEUMpGhBxWxQiPB&#xA;UtHhMxZi8CRygvElQzRTkqKyY3PCNUQnk6OzNhdUZHTD0uIIJoMJChgZhJRFRqS0VtNVKBry4/PE&#xA;1OT0ZXWFlaW1xdXl9WZ2hpamtsbW5vY3R1dnd4eXp7fH1+f3OEhYaHiImKi4yNjo+Ck5SVlpeYmZ&#xA;qbnJ2en5KjpKWmp6ipqqusra6voRAAICAQIDBQUEBQYECAMDbQEAAhEDBCESMUEFURNhIgZxgZEy&#xA;obHwFMHR4SNCFVJicvEzJDRDghaSUyWiY7LCB3PSNeJEgxdUkwgJChgZJjZFGidkdFU38qOzwygp&#xA;0+PzhJSktMTU5PRldYWVpbXF1eX1RlZmdoaWprbG1ub2R1dnd4eXp7fH1+f3OEhYaHiImKi4yNjo&#xA;+DlJWWl5iZmpucnZ6fkqOkpaanqKmqq6ytrq+v/aAAwDAQACEQMRAD8A9U4q7FUNf6ppmnxerf3c&#xA;NnEdhJPIkS/e5AxVKbf8wvINxMYLfzLpU0w6xR31szdafZDk9TiqexyRyIskbB0YVV1III8QRiq7&#xA;FXYq7FUJNrGkQzehNfW8c1aek8qK1T/kk1xVFgggEGoPQ4q7FXYq7FUGmtaPJMII7+3ecniIllQv&#xA;UdRxBrXFUZiriabnpiqBOvaGJPTOo2vqV48PWjrWtKUr1xVHKwYBlNQdwR0IxV4N/wA5S+evN3lX&#xA;/DH+HtTl07659e+tejx+P0vq/CvIH7PNvvxVOP8AnGTzd5l80eUNUvNfv5NQuYdQMMUstKrGIY24&#xA;jiB3Y4qwf84v+cf/AMwfNn5j6vr+kpaHT736v6Bln4P+6tYomqvE0+KM4Fe9eQNFvdD8kaFo98FF&#xA;5p9lBb3AQ8l5xoFbie4qMKp/irsVdiqEuNX0m2l9G4vYIZevpySojb+xIOKopWVlDKQysKqw3BBx&#xA;VvFXYq7FXYq7FVO4uLe2t5Lm5kWG3hUyTTSEKiIoqzMx2AA6nFXzD+Z//OTet6pqDaB+XivFA7ei&#xA;NUWMvdXDk0pbRkHgp7GnI9uOBUi0T/nGr81vNbjVfMl6unvOKtJqMslzeMO3JByp8ncH2xVPpv8A&#xA;nDfVRExh8zwPKB8CvaOik+7CVyPuxpWJal5J/PP8oZG1HT7iYaZGect3p8jXFnQd54HXYe8kdPfF&#xA;Xtn5Mf8AOQmnedpE0TW449O8ycawhCRBdgCp9LkSVcd0JO24PUAq9ixV8t/85H/nZrg1648m+XLt&#xA;7GzsaJql3AxSWaZgGaJXHxKiA0anU1B2wKwHyr/zj5+ZfmnQl12ztoYbS4Uy2ou5vTluF6h0WjbN&#xA;2Lla9em+Ksg/I7Wvzd8ueeP8OWen3t9p9vOLfW9IkqYbZeVGkEjn04WX7QIYB/fbFWC/nH/5NPzT&#xA;/wBtGf8A4niqf+SR+a3nDzN5cu5I9U1PRLC9sgHVJfqMMNtNGKLQCFeCpvTfap3xVMPzt/OHzF5y&#xA;80XPl/RbiVPL0E5s7Wztia3kgYxmR+O8gkb7CdKU2riqjqH/ADjB+aNj5ffWHjs5Wii9aXTIZma7&#xA;VQOTDjwEbMo7LIfauKsq/wCca/zl1qPzBb+Tdeu5LzTr4GPS5p2LvBOoLLHzNWKSAcQD0NKbVxVf&#xA;/wA5H6t+Zuuebbny/pWnao3lqwSNAtpbzmG5keMSO7tGpEgUtwArQU8cVSrTf+cU/NF35NTXJtUi&#xA;tNTltvrUejywOCAULiOSXkCj0pUcDQ7HFUk/5x38/wDmDQ/P+laLFdSSaLq0wtbmwZi0QaWoSRFJ&#xA;ojK9CSOoqMVQf54eRfOnljWIbrzHfLd22rXF7LpaLPLP6caOjMCJFUJtKmy+HtiqN/JX8t/zA8ye&#xA;nrHl/UUtdJsNQiW+ga5mhLmPhI9ERWVqoQNziqC/5yR/8nR5i/6M/wDqBgxVNfzk8qel+X35deao&#xA;U+C40i3068YdOccQlh+llaQf7HFXqX/OIXmD635O1bQ3blJpd4s0YPaK7TYD/npC5+nCrwz89/MB&#xA;13819fuEYvDbT/UIB2AtFELcfYyKzfTgVnH5ieedY/LvyZof5Y6BM1hqMVklz5ivYWKzLPdVmaCN&#xA;9mXd6luvHiBTfFWN+Uv+cdPzI826EnmGBrS1t7wGW2F/NIs06tU+ooSOXZuxcivXpviql+Xv5jec&#xA;vyq84HSdUMyabBP6GsaLKxZEBb45IlqVVwDyVl2b3BxV9uQzRTwxzQuJIpVDxuu4ZWFQR8xhVfir&#xA;sVdirsVfNP8AzlT+Zt0bmLyBpEjDkEm1kx15OX3httt+lHYd6r74FZ3+RP5KWPkrSotX1WFZvNV5&#xA;GGmdgGFojivoR/5VPtsOp2G3Uq9bxV2KtOiupRwGRgQykVBB6gjFXyl/zkV+TUXlaePzr5VjNnpr&#xA;TJ9dtoKoLS4Lfu5oStOCM9BQfZalOtAFe2fkb+Y7eevJEN5dsP0xYN9U1QCg5SKAVlAFNpFNf9ao&#xA;7YVfF/nh55POvmB7j+/bUrxpq9eZnct+OBX6CaEltHomnpahRapbQrAE+z6YjAWntTCqNWNFLFVC&#xA;lzycgUqaAVPjsMVfAn5x/wDk0/NP/bRn/wCJ4Ffafl7/AET8r9ONooiaHRYWhVAAAwtQRQD3wq+D&#xA;PLkOszeYNNh0Msusy3MKaaUdY2+ss4EXF3Kqrc6UJOBXtf8AhH/nLz/f+o/9xSz/AOyjFUh8p/kL&#xA;+ceneadJ1P8AQYRbC/t55ZFvLE8PRlV2qEnrsB0GKs9/Ob/nJfWNK1298teT0ihewdoLvV5VEres&#xA;u0iQxsCg4N8JZgakdKblVilr5M/5yV84Wj6hqWp32n6a0RlaTULx7SIoFLH/AEaL4ht4xDFWAfk5&#xA;/wCTT8rf9tGD/ieKvZv+czf+mP8A+3j/ANiuJVPf+cPv+UE1n/tqN/1DxYVeLf8AOSP/AJOjzF/0&#xA;Z/8AUDBgV71qflM+aP8AnGPTrCJPUvINGtb2yAFW9a2iEnFfd1DJ9OFXin/ON/niDyt5r1V7twtn&#xA;caVdSsh2BkskN0v08I5B9OBUm/Jjy7cecfzX0xLsGeNbhtT1Jz0KQt6rcvaSTin+yxVQ/PKaeb82&#xA;vM7zAhxeFACa/AiKif8ACKMVZtovlb/nKmbR7GbSp7/9FyW8T2Hp6laKn1dkBi4qZwQOFKDFUl1f&#xA;8ifz61nU5r/VdIe91KcK0881/YtIwVQiliZ67KoGKvrb8u7DV9O8iaBp2sQmDU7KxgtrqEukhV4U&#xA;Ef20LKdl7E4VZDirsVdirsVfHH5TWq+fv+cgZdYvD69vHc3WsMritUieluu/ZHeOnsMCvdPz7/N6&#xA;f8vtEtItLjjl17VWdbUygtHDFEB6krKKcjV1Cg7V33pQlXlUF9/zlVF5ct/Osd/Jd2dwqTrYBLeW&#xA;ZoZKFH+qrH9lwRsnxAHoMCsp/Mr8/vOHlnybotvPpSaT541eBp7uGTjIlrCrFFlWMlvimIqqP9mh&#xA;DVphVjZu/wDnK3RdMs/M8lxJqEF00ZbTOENxIBKQEEtuiBlDch/dmq96YFe/GwvPN3kB7DzHp36N&#xA;vNXsXhv7BmWT0ZJFK1VlLDY0de42rvhV84/84larc6f5/wBX0GaqJeWbNJHWtJ7SVQOm2yyPgVBf&#xA;85J/lPqui+aLzzZp9u02gatJ69zJGtfq1y/96JadFkf4lbxNOtKqoXyR/wA5PecvLHlyDQ5LK21S&#xA;KyjEVjcTl0kSNRREfgaOqbAdDTviqN/KfVfzm88/mTNr2nalPZWtxMkmt3ar/oKQoFUQrC4eNn9M&#xA;cYxu3evU4qwD84//ACafmn/toz/8TxV9w+SlDeStBVhUHTbQEHoR6CYVfGX5tflnr35debmuLdJE&#xA;0iS4+saJqUdeK0bmkZYfZli/GlRgVmw/5y+84foP6qdItP0v6fAanyfhypT1Pq9Kcu/26V7U2xVB&#xA;f849aX+aOu+eG12y1G7tNHknM+vai/xRXR5cnhCODHJI/StPgG+2wKrBPzV8u6z5X/MfV4b2N1dr&#xA;2W8srhwSs0UshljkDEUbZvi8GqMVeh69/wA5P+dvNOhN5b0vRY7bVNTT6rLc2rSTSv6g4usEPGqs&#xA;/TqxHbffFXnP5UH6l+a3llbqsTR6rbxSBhurmUJQ/wCyNMVe6/8AOYui39xo3lzV4Ymez0+W6hu3&#xA;UEhDdCExliOgJhIqe9MKvJ/yg/OnzF5FSTR7C0tbuz1K6jkcXAfkjtSNipRl6qBsfDAq3/nJH/yd&#xA;HmL/AKM/+oGDFX1r+UYr+V3lUHp+i7X/AJNLhV8Wfmp5Xfyn+YWt6NEpit4rh3swoKj6tcD1I1Hi&#xA;BG/E/I4Fe7f84f8AlT0dK1nzTMlHu5FsLNiN/ThAklI9mdlHzXFUi/5yi/KnVY9dfzvpNs9zp94i&#xA;DV1iUsYJolCCVgOkboq1NKBhv1xVIPy9/wCcnfMvlPy5BoV1psWr29mvp2MzytDJHEPsxsQrh1X9&#xA;noabYqkena7+bH5mfmVHqujTTxa43CNLi0Z4beytgejOCeEQ3JDV5GuzE0xV9s6Xb3dtptrb3t0b&#xA;28hiRLi8ZVQzSKoDyFEAVeR3oBhVE4q7FXYq7FXyB/zilINP/Ni+srr93cy6bdWqoevqxzwyMv0L&#xA;E2BWTf8AOY2j3xm8uaysZawVJ7SSUdElJWRFb/XUNT/VOKs30v8A5yM/Lex/L2y1B73nqdvaRRNo&#xA;iBhcGdECFBtxC1H2yaU99sKvFP8AnIrU0803/l/z1p9vcx6Jq2n/AFaA3UZjZZraaQundaUkBBVi&#xA;DvTpgV7rqH/OS/5Z2vleDWYbw3l7Msf+4aIEXSu5HqK3IBF9PfcmhpsTUYVeieW/MVj5g8v2Wu2a&#xA;TQ2V9EJ4luUMUgQ13ZT06VBrQjcGmKvlf/nG6b9I/nhqF/bgmCSC/ua+Eckq8TvTu4wK+iPzM/NX&#xA;yl5C05H1pmuLq6DC10yEK00o6EkMQqp2LN9FemFXzRffnt5Nub57kflhodGbl+8VGc7/ALRWFFJP&#xA;+rgV7d+Uf5++SvNcsHl9LEeXtT48bTT/AIDbSUFSkDosYrtXiVHtXCqv+bPn38qPJEn+5bRbPVfM&#xA;F2DMtjHbQNM1f92TyOp4Kx7mpPYHfFXl/wD0OHqsZWO18rWsNqgCxQ/WHPFFFAoKxou3ai4Feifl&#xA;9/zkL5I8/TL5f1ixGmahdgRx2d2UuLW4J/3WshVRyP8AK6ivQVOFWM/m55q/LL8t/NdrpS/lvpWp&#xA;yT2iX4uKQW4UySyx8PT+rTDb0q1r36bYqoXH/OXmj2ug2a6X5aKaiysJLL1wttbKrlY1DrEhkJUB&#xA;qKigV69cCoPSv+cm/Knmi9h0rz95WtDpcrgLdELdpCzUHNopUqB4spqPA4qhb7/nIvyF5Y1SaPyB&#xA;5LskiBKNqZRLVpQNvhWOP1OB7cm/2IxVkH5W/nb5B82eZbfSNY8pWGk6veSVsb6OKGWOSfdgrM0a&#xA;OjsfsmpqfDCq/wA9f85R2+i+YtY8s3PlJNRt7GeS0leS9CpMqHiS0TW0gofCpxVg+ufnb+VVrfRt&#xA;5c/LjS5/T4u1zdRRRj1NiRHGsR2U9CafIYFZb5Z/5yK/LDXjfXXnXy3a2GpRx+qtwIEvfrPABRGG&#xA;aMOJKUChvhp+0MKpXc/85fy20n1fRPK0EGmQjhbRyzFWCLsvwRIETb9kVp44Fej/AJX/AJk+Q/zW&#xA;e5+vaDaw+YrOMNPbXMcV0WgBCiSOZkBKhmoQRtUYVWfmF+fXkX8unbQNKsVvtTt689NsuFvbwMx5&#xA;cZJFUqrGtSqqT40xV5wv/OY+s+rWTyzbNDXdBcyBqeHIoR/wuC1Zv+XnmX8jPzMvHjbyvp9n5jKm&#xA;SayurWAvLTdnilVQJad6gN7UwqhvPn596T+WHma48paX5Qga1tkilD2twllGTLGH/uUt3ApWnXFU&#xA;n1X/AJzEsk0+1Ol+Xmk1CVOV4k9xSGFqmiIyxhpdup4r9OBUX5E/5yxtNY1220rzDpA06O9kWGC+&#xA;t5TIiO5Cr6qMqkKSftA7eHfCr1T8yfzR8s/l/pUd7rDvLcXJK2VhBQzTMtORFSAqrUcmPT50GKvD&#xA;Lj/nMjVjOxtvLNukFfhWS5dnp7kIo/DBas18i/8AOVPlDXryDT9asptDvbhhHFJy+sWzOxooMiqj&#xA;qWPilPfCryP8zrLUvyt/PRfMVjEfqs9z+lbIdFkjnJF1BWlBu0ieykHAr6ttpvK3nnyrDcelDqug&#xA;6rEsgimUOjDrRlNeLow37qw8RhViFr/zjj+T1veLdLoXMo3NYpbi5kirWoBRpCGHs1RirN9Y8r+X&#xA;dZ0Y6LqmnQXWlFVVbNkAjUIKLwC04FR9krQjtirC9N/5x2/KDT76O8i0ISyRHkkdxPPPFWtRWOR2&#xA;RvkwIxVS/P78w7Xyd5DubeCQJrOrxvZ6bCpoyhl4yzCnQRI2x/mK4qwT/nEPyZNa6Vqnm25j4/pA&#xA;iy08nqYYWJmcezScV+aHFXhv5xeZ7vzJ+ZOu387lo4bqS0tFrULb2zGKML4VC8j7k4FfU/kT8g/y&#xA;803yhZWmq6Nb6nqVxAj6heXK+pIZZFq4jb/daqTReFPHrvhVJNA/5xc8maL5muNeury5ubC2m+s6&#xA;VpyM0XohKSL6kyt6khRh8NOPatcVfMV9e6r588+meZ/9yPmHUEjQt8QQ3EgjiT/VQFVHsMCvsvSv&#xA;yF/Kqw0WPS30C3vAI+Et5crzuZGI+JzLUMpJ3+AgDtTCr5E/NbyePI35h6jo1jK4traSO406bkRI&#xA;sUqiWP4hQ8oyeNfEVwKnP55eYp/Md55P1q4PK6vPLVoblgKAzJdXSSmnu6k4q9Z/5x3/ACf8i6z+&#xA;Xya7rumR6ne6jNMqmcsRHFC5iCooKgElSSeuFXz5+YeiWWheete0ewDLZWN7PDbKxLFY1c8VJO5o&#xA;Nq4FfUOgfkB+XVx+VVrHPpyyateaal1JqxZvXW5lhEnNCDQKjHZaUp1rvhV8ufl8zJ598tOp4suq&#xA;2RUjqCLhMCpl+cf/AJNPzT/20Z/+J4q+lYPyC/LZPyu9KTTFfU20z6w+q8n+sfWTD6nqK1aAB+if&#xA;ZpscKvk/yhpEOtebNE0edikGpX9rZyuv2gk8yxsR7gNgV9K/n7+TfkDRfyxu9Y0PSo9OvtJe3KSx&#xA;M9ZI5ZkgZJOTNz/vA1Tvt164VeQfkLr8nl/XfMWtxAGfT/L1/PAG+yZUaL0wfbnTArHvy88tS+eP&#xA;zD0zRrydydUuXkvrgmsjIitPO1T+2yo2/jir7Eu/yI/Km40ZtKHl62gQx+ml1EvG6U02cTmshYdf&#xA;iJr3wq+Mr2PVfInn64jtJyuoeXtQdIbgbcjbykKxAP2XUbjwNMCst/5yOvI7780Lm9i/u7qysZk3&#xA;r8MlsjDf6cVezfkj+S35d6p+WGnalrGkx6jqGrJLJcXMpcMo9R0VYuLDhxUdV3J38KFXy35j02PS&#xA;fMeqaZC5aOwvJ7aNz9oiGVkBNO/w4Few/wDOXcd+PzD06SZX+pNpka2rGvpllml9QL25DkvLv09s&#xA;VQn5Y/mj+Tuk+W4NG82+S4bu8iLiTVktre7klDsWDOZ+EicQeNFY9NqdMVepflRof/OPV/5zfXfK&#xA;NyrarxraaNdF0+ryCpklt4pwGY0/lZgnanYqz782fyw0z8wfLR02dhb6jbEy6XfEVMUpFCrU3Mbg&#xA;UYfI9QMVfMnkr8wPPf5K+ZbnQdasnl01pOV5pchIU9hcWkn2dwOv2W6HfcBX0v5S/O78tPM8EbWe&#xA;tQWl043sb5ltpw38oDkK5/1GbCrKrjzF5ftoPrFxqdpDb0r60k8aJQd+RYDFXl3n3/nJvyF5egkg&#xA;0SUeYNVoRGlsf9FVuxkn+yw/4x8voxV4l5S8l+ffzu84vr2uSyJpCyKt7qPEpFHEpr9Ws1NRy+Ve&#xA;NeTVJ+IK+w9J0rT9I0y10zToVt7GzjWG3hXoqIKAe/uT1wq+B/zT0K50P8xfMOnXClSl9NLFWu8M&#xA;zmWJt/GN1wK+yvy8/NLyj5j8oWOo/pS1trmO3RdRtZpkjeCVFpIGVyp41BKt0IwqxmP/AJyU/Lu8&#xA;81XflmRpltWcWtnrMKma3ndwFICoDIPjbirBWB61AxV8nwrqHkvz1CbuI/XvL2pRvJF9nk9pMG2J&#xA;7Nw2PhgV91aZ+ZPkTUtETW7fXbJdPZBI8ks8cTR1FSsquwKMK7g4VfF35zecbPzh+Y2q6xp5L6ez&#xA;Jb2TEEF44EEYeh3+NgWHzwKj/wA6NButAk8maTdqUu7fy1am4jbqkkt1dSuh91ZyuKvpT/nGX/yT&#xA;ukf8Zbv/AKiZMKvlb84//Jp+af8Atoz/APE8Cvtryz/5LzSv+2Rb/wDUMuFXwl5B/wCU78uf9tSy&#xA;/wCohMCpn+cf/k0/NP8A20Z/+J4q+3P/ACn/AP26f+xbCr4X/LH/AMmV5T/7bOn/APUVHgV9e/8A&#xA;OSP/AJJfzF/0Z/8AUdBhV8y/kboU+vav5l0e3Fbm98u38VuvjKWiMY+lwMCpL+VXmm28n/mNo2ua&#xA;gjLbWM7peDiSyRzRvBI3HrVFkJp12xV9t3f5keQ7TRG1uXXrH9GhPUWZJ0csKV4oqkszn+UCte2F&#xA;Xwtrt7e+c/Pd9d2cDNd69qEj2lttyBuZT6Ue22wYCuBWW/8AORNimn/mXNYJThaWFhAtOlI7VEH6&#xA;sVfUP5Bf+Sg8tf8AMPJ/yfkwq+L/AD9/ynfmP/tqXv8A1EPgV9a/nD+Yv5PW13a+U/OVuuqmZ63S&#xA;Rp6hsQy7Su6FZI2IbpH8XHfwqVYfef8AOOP5Oa5p7an5a8zva27qWSUXEF1bJtX4g3CQU7hpMVfO&#xA;KfXNE8000e7Fzd6delbC+talZXhlpHJF3KvQFfY4FfoxhVIvN3kbyr5v0/6h5h0+O9hWphdqrLET&#xA;+1HItHT6Dv3xV4X5h/5w7tHlaTy95geGM/Ztr+ISEH/jNEU2/wCeeBUii/5w883GQCXXdPWP9plW&#xA;ZiPkCq1+/GlZ55P/AOcTfJelSx3PmC8m16dDy9Dj9Wtq9RyRWeRqf69D3GFXtllY2djaRWdlBHbW&#xA;kChIbeFQkaKOgVVoAMVVsVec/m3+SXl/8w4IriSU6drlsvC31KNA/KPc+lMlV5rU1G4I7dwVXg9x&#xA;/wA4jfmQlwY4b/SpYa/DMZp02r1ZfRJHvSuBXrH5S/8AON2jeTr6LW9auV1fXIaNaqqcba3f+dA3&#xA;xO4/ZZqU7Cu+FUx/Nz8gNA8+z/pW2n/RPmAKEe8VOcc6qKKJo6qSwAoHBrTrUAYq8Vl/5xG/MtZy&#xA;kd7pTxVos3rTqKeJX0Kj364Felflf/zi9pXlvUrfWvMt4mrajasJLa0iUraxyKQVdi3xylSKioA9&#xA;jhVG/nT+QeqfmF5ptdatNWgsI7exjszDLG7sWSaWTlVSNv3tMVZ1+VPki58k+SbLy7c3SXk1q8zt&#xA;cRqUU+rK0goGqduVMVeQ+d/+cWdb8x+btX12LXba3i1K6kuUgeGRmQSNWhINDir3nStJksvLVnpD&#xA;SB5LayjtGlAIUtHEI+QHhtir588u/wDOJmu6T5g0zVX8wWsqWF3BdNEsMgLCGRZCoJbvxwKivO//&#xA;ADizrfmPzdq+uxa7bW8WpXUlykDwyMyCRq0JBocKvev0VJ/hv9E+oPU+p/VPVoePL0vT5U8MVfP/&#xA;AJU/5xS1zRPNOja1Jr9rNHpl9bXjwrDIGdbeZZCoJOxPGmBXtP5oeTbjzn5F1Py1b3KWk1/6HG4k&#xA;Usq+jcRzGoFDuI6YVed/k3/zj9qvkDzbJrl1q8F9E9pJa+jFE6MDI6NyqxI24Yq781P+cZdH816l&#xA;Prmg3i6Pq1yTJdwuhe1mkPV6L8UTMftEVB68a1JVeWR/84j/AJlmcRve6UsdaNMJ5yKeIHoVwK9l&#xA;/KT/AJx50LyLdjWL65/S+vhSsM5ThDb8hRjChLHmRtzJ6dAN6lUj/Nj/AJxy1fzx51uvMNtrNvZx&#xA;XEcMYgkid2HpRhCaqQN6Yq9U/LryrP5T8laV5ennW6l0+No3nQFVblIz1AO/7WKvDPMX/OJmu6t5&#xA;g1PVU8wWsSX93PdLE0MhKiaRpApIbtywKzf81P8AnHHy55zvJdY0y4/Q2uy1a4kVPUt7hv5pI6qV&#xA;c93U/ME4VePS/wDOI/5mLMUjvNKkjr8MnrzgEeJBgrgV6R+Vn/OL9l5a1e31zzLfR6pfWjCS0soE&#xA;YW0cymqyMz0aQqd1HFd/HCr/AP/Z</xmpGImg:image>
               </rdf:li>
            </rdf:Alt>
         </xmp:Thumbnails>
         <xmpMM:DocumentID>xmp.did:d50426dd-733e-4483-9a1e-b78c96d4860b</xmpMM:DocumentID>
         <xmpMM:InstanceID>xmp.iid:d50426dd-733e-4483-9a1e-b78c96d4860b</xmpMM:InstanceID>
         <xmpMM:OriginalDocumentID>uuid:d5a59b43-a42a-11d8-833c-000393d00dfa</xmpMM:OriginalDocumentID>
         <xmpMM:DerivedFrom rdf:parseType="Resource">
            <stRef:instanceID>xmp.iid:38d33305-e949-4483-85b0-0bd894cdb59e</stRef:instanceID>
            <stRef:documentID>xmp.did:38d33305-e949-4483-85b0-0bd894cdb59e</stRef:documentID>
            <stRef:originalDocumentID>uuid:d5a59b43-a42a-11d8-833c-000393d00dfa</stRef:originalDocumentID>
         </xmpMM:DerivedFrom>
         <xmpMM:History>
            <rdf:Seq>
               <rdf:li rdf:parseType="Resource">
                  <stEvt:action>saved</stEvt:action>
                  <stEvt:instanceID>xmp.iid:38d33305-e949-4483-85b0-0bd894cdb59e</stEvt:instanceID>
                  <stEvt:when>2014-09-26T02:49:51+01:00</stEvt:when>
                  <stEvt:softwareAgent>Adobe Illustrator CC (Macintosh)</stEvt:softwareAgent>
                  <stEvt:changed>/</stEvt:changed>
               </rdf:li>
               <rdf:li rdf:parseType="Resource">
                  <stEvt:action>saved</stEvt:action>
                  <stEvt:instanceID>xmp.iid:d50426dd-733e-4483-9a1e-b78c96d4860b</stEvt:instanceID>
                  <stEvt:when>2014-09-26T02:54:15+01:00</stEvt:when>
                  <stEvt:softwareAgent>Adobe Illustrator CC (Macintosh)</stEvt:softwareAgent>
                  <stEvt:changed>/</stEvt:changed>
               </rdf:li>
            </rdf:Seq>
         </xmpMM:History>
         <dc:format>image/svg+xml</dc:format>
         <xmpTPg:MaxPageSize rdf:parseType="Resource">
            <stDim:w>792.000000</stDim:w>
            <stDim:h>612.000000</stDim:h>
            <stDim:unit>Points</stDim:unit>
         </xmpTPg:MaxPageSize>
         <xmpTPg:NPages>1</xmpTPg:NPages>
         <xmpTPg:HasVisibleTransparency>False</xmpTPg:HasVisibleTransparency>
         <xmpTPg:HasVisibleOverprint>True</xmpTPg:HasVisibleOverprint>
         <xmpTPg:PlateNames>
            <rdf:Seq>
               <rdf:li>Black</rdf:li>
            </rdf:Seq>
         </xmpTPg:PlateNames>
         <xmpTPg:SwatchGroups>
            <rdf:Seq>
               <rdf:li rdf:parseType="Resource">
                  <xmpG:groupName>Default Swatch Group</xmpG:groupName>
                  <xmpG:groupType>0</xmpG:groupType>
                  <xmpG:Colorants>
                     <rdf:Seq>
                        <rdf:li rdf:parseType="Resource">
                           <xmpG:swatchName>[Registration]</xmpG:swatchName>
                           <xmpG:mode>CMYK</xmpG:mode>
                           <xmpG:type>PROCESS</xmpG:type>
                           <xmpG:cyan>0.000000</xmpG:cyan>
                           <xmpG:magenta>0.000000</xmpG:magenta>
                           <xmpG:yellow>0.000000</xmpG:yellow>
                           <xmpG:black>100.000000</xmpG:black>
                        </rdf:li>
                     </rdf:Seq>
                  </xmpG:Colorants>
               </rdf:li>
            </rdf:Seq>
         </xmpTPg:SwatchGroups>
      </rdf:Description>
   </rdf:RDF>
</x:xmpmeta>
                                                                                                    
                                                                                                    
                                                                                                    
                                                                                                    
                                                                                                    
                                                                                                    
                                                                                                    
                                                                                                    
                                                                                                    
                                                                                                    
                                                                                                    
                                                                                                    
                                                                                                    
                                                                                                    
                                                                                                    
                                                                                                    
                                                                                                    
                                                                                                    
                                                                                                    
                                                                                                    
                           
<?xpacket end="w"?>
	</metadata>
<g id="Background">
</g>
<g id="Guides">
</g>
<g id="Foreground">
	<g>
		<path fill-rule="evenodd" clip-rule="evenodd" d="M321.689,301.069c-2.759-5.03-7.465-7.032-12.928-7.032
			c-7.951,0-14.28,5.626-14.28,15.146c0,9.682,5.95,15.145,14.55,15.145c5.517,0,10.223-3.029,12.819-7.627l-6.058-3.083
			c-1.353,3.246-3.408,4.22-6.004,4.22c-4.49,0-6.545-3.732-6.545-8.654c0-4.923,1.731-8.655,6.545-8.655
			c1.298,0,3.895,0.703,5.409,3.949L321.689,301.069z"/>
		<path fill-rule="evenodd" clip-rule="evenodd" d="M337.154,300.528c4.814,0,6.87,3.732,6.87,8.33c0,5.247-2.056,8.98-6.87,8.98
			c-4.814,0-6.869-3.732-6.869-8.654C330.285,304.261,332.34,300.528,337.154,300.528z M337.154,294.038
			c-8.979,0-15.307,5.463-15.307,15.146c0,9.682,6.328,15.145,15.307,15.145c8.979,0,15.308-5.463,15.308-15.145
			C352.461,299.501,346.133,294.038,337.154,294.038z"/>
		<path fill-rule="evenodd" clip-rule="evenodd" d="M354.19,323.57h8.438v-17.903c0-2.596,1.082-4.814,4.489-4.814
			c3.246,0,4.111,1.893,4.111,4.706v18.012h8.438v-17.687c0-2.921,1.46-5.03,4.273-5.03c3.191,0,4.327,1.839,4.327,5.896v16.821
			h8.438v-21.96c0-6.599-6.058-7.573-8.871-7.573c-3.354,0-6.491,1.028-9.249,3.84c-1.893-2.542-4.327-3.84-7.627-3.84
			c-2.596,0-6.166,0.757-8.33,3.3v-2.542h-8.438V323.57z"/>
		<path fill-rule="evenodd" clip-rule="evenodd" d="M399.404,323.57h8.438v-17.903c0-2.596,1.082-4.814,4.489-4.814
			c3.246,0,4.111,1.893,4.111,4.706v18.012h8.439v-17.687c0-2.921,1.46-5.03,4.272-5.03c3.191,0,4.328,1.839,4.328,5.896v16.821
			h8.438v-21.96c0-6.599-6.059-7.573-8.871-7.573c-3.354,0-6.49,1.028-9.249,3.84c-1.893-2.542-4.327-3.84-7.627-3.84
			c-2.596,0-6.166,0.757-8.33,3.3v-2.542h-8.438V323.57z"/>
		<path fill-rule="evenodd" clip-rule="evenodd" d="M458.952,300.528c4.814,0,6.869,3.732,6.869,8.33c0,5.247-2.056,8.98-6.869,8.98
			c-4.814,0-6.87-3.732-6.87-8.654C452.082,304.261,454.138,300.528,458.952,300.528z M458.952,294.038
			c-8.979,0-15.308,5.463-15.308,15.146c0,9.682,6.328,15.145,15.308,15.145c8.979,0,15.308-5.463,15.308-15.145
			C474.26,299.501,467.931,294.038,458.952,294.038z"/>
		<path fill-rule="evenodd" clip-rule="evenodd" d="M476.529,323.57h8.438v-17.903c0-2.596,1.082-4.814,4.49-4.814
			c3.245,0,4.11,1.893,4.11,4.706v18.012h8.439v-21.257c0-4.327-1.894-8.276-8.709-8.276c-2.596,0-6.166,0.757-8.33,3.3v-2.542
			h-8.438V323.57z"/>
		<path fill-rule="evenodd" clip-rule="evenodd" d="M530.182,298.203c-3.894-2.596-8.275-4.165-12.711-4.165
			c-5.843,0-12.171,2.813-12.171,10.061c0,10.223,17.038,6.653,17.038,11.143c0,2.597-3.19,2.921-4.598,2.921
			c-3.84,0-6.49-1.568-9.087-4.057l-5.247,4.543c4.22,3.895,7.789,5.68,14.064,5.68c6.273,0,12.981-2.705,12.981-10.277
			c0-10.764-17.038-6.707-17.038-11.629c0-1.46,1.514-2.217,3.623-2.217c2.651,0,6.275,1.082,7.951,3.083L530.182,298.203z"/>
		<path fill-rule="evenodd" clip-rule="evenodd" d="M321.689,267.964c-2.759-5.03-7.465-7.032-12.928-7.032
			c-7.951,0-14.28,5.626-14.28,15.145c0,9.682,5.95,15.146,14.55,15.146c5.517,0,10.223-3.029,12.819-7.627l-6.058-3.083
			c-1.353,3.246-3.408,4.219-6.004,4.219c-4.49,0-6.545-3.732-6.545-8.655c0-4.922,1.731-8.654,6.545-8.654
			c1.298,0,3.895,0.703,5.409,3.949L321.689,267.964z"/>
		<path fill-rule="evenodd" clip-rule="evenodd" d="M323.748,290.465h8.438v-16.66c0-3.191,2.001-4.057,7.032-4.652l0.919-0.108
			l-0.054-7.464c-2.975,0.217-6.058,1.298-7.897,3.029v-2.921h-8.438V290.465z"/>
		<path fill-rule="evenodd" clip-rule="evenodd" d="M368.794,277.808c-0.054-8.871-3.624-16.876-14.118-16.876
			c-8.763,0-14.118,5.842-14.118,16.011c0,8.113,5.193,14.28,14.118,14.28c6.436,0,11.034-2.543,13.955-7.951l-6.329-3.3
			c-2.434,3.462-3.895,5.085-7.032,5.085c-2.704,0-6.22-1.731-6.274-7.248H368.794z M348.889,272.616
			c0.378-3.787,3.299-5.517,5.733-5.517c2.434,0,5.463,1.298,5.733,5.517H348.889z"/>
		<path fill-rule="evenodd" clip-rule="evenodd" d="M388.15,278.458c0,4.381-2.488,6.599-5.788,6.599
			c-2.056,0-3.949-0.974-3.949-3.245c0-2.326,1.947-3.137,4.057-3.732l5.68-1.622V278.458z M396.263,269.262
			c-0.054-6.491-4.976-8.33-12.819-8.33c-3.895,0-11.575,0.757-11.846,9.033h8.114c0.433-2.867,1.73-3.84,4.435-3.84
			c2.272,0,4.003,0.919,4.003,3.083v2.38l-3.084,0.433c-9.195,1.298-14.767,3.732-14.767,10.656c0,5.517,4.111,8.546,9.628,8.546
			c3.029,0,7.248-1.461,8.654-3.733h0.108c0.054,0.974,0.217,2.001,0.541,2.975h7.789c-0.703-1.785-0.757-4.002-0.757-6.004V269.262
			z"/>
		<path fill-rule="evenodd" clip-rule="evenodd" d="M416.106,262.23h-5.031v-8.33h-8.439v8.33h-4.11v5.192h4.11v15.146
			c0,4.164,1.028,8.654,8.223,8.654c1.839,0,4.327-0.216,5.409-0.325v-6.653c-0.434,0.054-1.623,0.162-2.542,0.162
			c-1.516,0-2.651-0.595-2.651-2.867v-14.118h5.031V262.23z"/>
		<path fill-rule="evenodd" clip-rule="evenodd" d="M419.284,261.69v28.776h8.439V261.69H419.284z M427.723,258.444v-6.491h-8.439
			v6.491H427.723z"/>
		<polygon fill-rule="evenodd" clip-rule="evenodd" points="439.078,290.465 447.569,290.465 457.415,261.69 448.435,261.69 
			443.459,282.027 443.352,282.027 438.374,261.69 429.342,261.69 		"/>
		<path fill-rule="evenodd" clip-rule="evenodd" d="M484.664,277.808c-0.054-8.871-3.624-16.876-14.117-16.876
			c-8.764,0-14.117,5.842-14.117,16.011c0,8.113,5.191,14.28,14.117,14.28c6.437,0,11.034-2.543,13.955-7.951l-6.329-3.3
			c-2.434,3.462-3.895,5.085-7.031,5.085c-2.704,0-6.221-1.731-6.274-7.248H484.664z M464.759,272.616
			c0.379-3.787,3.299-5.517,5.733-5.517s5.464,1.298,5.734,5.517H464.759z"/>
		<g>
			<path fill-rule="evenodd" clip-rule="evenodd" d="M259.01,260.448c-8.682,0-16.322,3.213-22.226,9.203
				c-6.077,6.165-9.376,14.152-9.376,22.487c0,8.421,3.212,16.235,9.29,22.313c6.077,6.077,13.977,9.376,22.312,9.376
				c8.335,0,16.409-3.299,22.66-9.463c5.904-5.817,9.029-13.544,9.029-22.226c0-8.595-3.125-16.409-9.116-22.4
				C275.506,263.661,267.692,260.448,259.01,260.448z M259.097,266.179c7.119,0,13.457,2.691,18.406,7.64
				c4.861,4.862,7.466,11.287,7.466,18.319c0,7.119-2.518,13.37-7.38,18.146c-5.123,5.035-11.721,7.727-18.493,7.727
				c-6.859,0-13.284-2.691-18.232-7.64c-4.949-4.95-7.727-11.461-7.727-18.233c0-6.859,2.778-13.37,7.727-18.406
				C245.726,268.784,251.977,266.179,259.097,266.179z"/>
			<path fill-rule="evenodd" clip-rule="evenodd" d="M258.688,286.873c-1.79-3.264-4.844-4.563-8.389-4.563
				c-5.16,0-9.267,3.65-9.267,9.829c0,6.283,3.861,9.829,9.443,9.829c3.581,0,6.634-1.966,8.319-4.949l-3.932-2.001
				c-0.878,2.106-2.211,2.738-3.896,2.738c-2.914,0-4.247-2.422-4.247-5.616c0-3.194,1.123-5.617,4.247-5.617
				c0.842,0,2.527,0.456,3.51,2.562L258.688,286.873z"/>
			<path fill-rule="evenodd" clip-rule="evenodd" d="M276.969,286.873c-1.791-3.264-4.844-4.563-8.389-4.563
				c-5.16,0-9.268,3.65-9.268,9.829c0,6.283,3.862,9.829,9.443,9.829c3.581,0,6.634-1.966,8.319-4.949l-3.932-2.001
				c-0.878,2.106-2.212,2.738-3.897,2.738c-2.913,0-4.248-2.422-4.248-5.616c0-3.194,1.124-5.617,4.248-5.617
				c0.842,0,2.527,0.456,3.511,2.562L276.969,286.873z"/>
		</g>
	</g>
</g>
</svg>
